<svg xmlns="http://www.w3.org/2000/svg" viewBox="0 0 1080 520" width="1080" height="520">
  <defs>
    <marker id="arrowA" markerWidth="10" markerHeight="7" refX="9" refY="3.5" orient="auto">
      <polygon points="0 0, 10 3.5, 0 7" fill="#d97757"/>
    </marker>
    <marker id="arrowB" markerWidth="10" markerHeight="7" refX="9" refY="3.5" orient="auto">
      <polygon points="0 0, 10 3.5, 0 7" fill="#7b8b5c"/>
    </marker>
    <marker id="arrowC" markerWidth="10" markerHeight="7" refX="9" refY="3.5" orient="auto">
      <polygon points="0 0, 10 3.5, 0 7" fill="#8c6f5a"/>
    </marker>
    <marker id="arrowE" markerWidth="10" markerHeight="7" refX="9" refY="3.5" orient="auto">
      <polygon points="0 0, 10 3.5, 0 7" fill="#b45309"/>
    </marker>
    <marker id="arrowF" markerWidth="10" markerHeight="7" refX="9" refY="3.5" orient="auto">
      <polygon points="0 0, 10 3.5, 0 7" fill="#9a6fb0"/>
    </marker>
    <marker id="arrowG" markerWidth="10" markerHeight="7" refX="9" refY="3.5" orient="auto">
      <polygon points="0 0, 10 3.5, 0 7" fill="#d97757"/>
    </marker>
    <marker id="arrowH" markerWidth="10" markerHeight="7" refX="9" refY="3.5" orient="auto">
      <polygon points="0 0, 10 3.5, 0 7" fill="#8f8a80"/>
    </marker>
    <style>
    text { font-family: 'Helvetica Neue', Helvetica, Arial, 'PingFang SC', 'Microsoft YaHei', 'Microsoft JhengHei', 'SimHei', sans-serif; }
    .title { font-size: 24px; font-weight: 700; fill: #141413; }
    .subtitle { font-size: 13px; font-weight: 500; fill: #8f8a80; }
    .section { font-size: 13px; font-weight: 700; fill: #8b7355; letter-spacing: 1.4px; }
    .section-sub { font-size: 12px; font-weight: 500; fill: #b4aba0; }
    .node-title { font-size: 18px; font-weight: 700; fill: #141413; }
    .node-sub { font-size: 12px; font-weight: 500; fill: #6b6257; }
    .node-type { font-size: 11px; font-weight: 700; fill: #a29a8f; letter-spacing: 0.08em; }
    .arrow-label { font-size: 12px; font-weight: 600; fill: #6b6257; }
    .legend { font-size: 12px; font-weight: 500; fill: #6b6257; }
    .footnote { font-size: 12px; font-weight: 500; fill: #a29a8f; }
    </style>
  </defs>
  <rect width="1080.0" height="520.0" fill="#f8f6f3"/>
  <text x="48.0" y="48" text-anchor="start" class="title">Evensong Architecture Tree</text>
  <text x="48.0" y="72" text-anchor="start" class="subtitle">Hackable CCR core, Research Vault MCP, and verified retrieval evidence</text>
  <line x1="48" y1="100" x2="1032.0" y2="100" stroke="#ded8cf" stroke-width="1"/>
  <rect x="48.0" y="86.0" width="984.0" height="102.0" rx="16.0" fill="none" stroke="#ded8cf" stroke-width="1.4" stroke-dasharray="5 4"/>
  <text x="66.0" y="110.0" class="section">CORE</text>
  <text x="66.0" y="130.0" class="section-sub">runtime ownership</text>
  <text x="30.0" y="137.0" text-anchor="end" dominant-baseline="middle" font-size="14.0" font-weight="600" fill="#6b6257">01</text>
  <rect x="48.0" y="218.0" width="984.0" height="128.0" rx="16.0" fill="none" stroke="#ded8cf" stroke-width="1.4" stroke-dasharray="5 4"/>
  <text x="66.0" y="242.0" class="section">MODULES</text>
  <text x="66.0" y="262.0" class="section-sub">replaceable system blocks</text>
  <text x="30.0" y="282.0" text-anchor="end" dominant-baseline="middle" font-size="14.0" font-weight="600" fill="#6b6257">02</text>
  <rect x="48.0" y="376.0" width="984.0" height="110.0" rx="16.0" fill="none" stroke="#ded8cf" stroke-width="1.4" stroke-dasharray="5 4"/>
  <text x="66.0" y="400.0" class="section">EVIDENCE</text>
  <text x="66.0" y="420.0" class="section-sub">public release surface</text>
  <text x="30.0" y="431.0" text-anchor="end" dominant-baseline="middle" font-size="14.0" font-weight="600" fill="#6b6257">03</text>
  <path d="M 540.0,174.0 L 540.0,194.4 L 184.0,194.4 L 184.0,250.0" fill="none" stroke="#d97757" stroke-width="2.0" marker-end="url(#arrowA)"/>
  <path d="M 540.0,174.0 L 540.0,194.4 L 434.0,194.4 L 434.0,250.0" fill="none" stroke="#d97757" stroke-width="2.0" marker-end="url(#arrowA)"/>
  <path d="M 540.0,174.0 L 540.0,194.4 L 688.0,194.4 L 688.0,250.0" fill="none" stroke="#d97757" stroke-width="2.0" marker-end="url(#arrowA)"/>
  <path d="M 832.0,288.0 L 818.4,288.0 L 818.4,289.0 L 798.0,289.0" fill="none" stroke="#8c6f5a" stroke-width="2.0" marker-end="url(#arrowC)"/>
  <path d="M 434.0,326.0 L 434.0,346.4 L 196.0,346.4 L 196.0,396.0" fill="none" stroke="#8c6f5a" stroke-width="2.0" marker-end="url(#arrowC)"/>
  <path d="M 544.0,288.0 L 557.6,288.0 L 557.6,289.0 L 578.0,289.0" fill="none" stroke="#8c6f5a" stroke-width="2.0" marker-end="url(#arrowC)"/>
  <path d="M 688.0,328.0 L 688.0,348.4 L 540.0,348.4 L 540.0,396.0" fill="none" stroke="#7b8b5c" stroke-width="2.0" marker-end="url(#arrowB)"/>
  <path d="M 650.0,432.0 L 786.0,432.0" fill="none" stroke="#7b8b5c" stroke-width="2.0" marker-end="url(#arrowB)"/>
  <path d="M 414.0 108.0 L 666.0 108.0 L 688.0 141.0 L 666.0 174.0 L 414.0 174.0 L 392.0 141.0 Z" fill="#f4e4c1" stroke="#8c6f5a" stroke-width="2.0"/>
  <text x="540.0" y="126.0" text-anchor="middle" class="node-type">ROOT</text>
  <text x="540.0" y="147.0" text-anchor="middle" class="node-title">Evensong Hub</text>
  <text x="540.0" y="169.0" text-anchor="middle" class="node-sub">Bun CLI + public system</text>
  <rect x="78.0" y="250.0" width="212.0" height="76.0" rx="10.0" fill="#a8c5e6" stroke="#5f7fa6" stroke-width="1.8"/>
  <text x="184.0" y="268.0" text-anchor="middle" class="node-type">CORE</text>
  <text x="184.0" y="294.0" text-anchor="middle" class="node-title">CCR Runtime</text>
  <text x="184.0" y="316.0" text-anchor="middle" class="node-sub">cli.tsx / REPL.tsx</text>
  <rect x="324.0" y="250.0" width="220.0" height="76.0" rx="10.0" fill="#9dd4c7" stroke="#5b8f83" stroke-width="1.8"/>
  <text x="434.0" y="268.0" text-anchor="middle" class="node-type">MODULE</text>
  <text x="434.0" y="294.0" text-anchor="middle" class="node-title">Research Vault</text>
  <text x="434.0" y="316.0" text-anchor="middle" class="node-sub">MCP package + vault API</text>
  <rect x="578.0" y="250.0" width="220.0" height="78.0" rx="10.0" fill="#fffcf7" stroke="#d97757" stroke-width="2.0"/>
  <rect x="584.0" y="256.0" width="208.0" height="66.0" rx="7.0" fill="none" stroke="#d97757" stroke-width="1.2" opacity="0.65"/>
  <text x="688.0" y="268.0" text-anchor="middle" class="node-type">PIPELINE</text>
  <text x="688.0" y="295.0" text-anchor="middle" class="node-title">Hybrid Retrieval</text>
  <text x="688.0" y="317.0" text-anchor="middle" class="node-sub">BM25 + dense + RAR</text>
  <rect x="832.0" y="250.0" width="180.0" height="76.0" rx="10.0" fill="#e8e6e3" stroke="#8f8a80" stroke-width="1.8"/>
  <text x="922.0" y="268.0" text-anchor="middle" class="node-type">MODEL IO</text>
  <text x="922.0" y="294.0" text-anchor="middle" class="node-title">Atomic Gateway</text>
  <text x="922.0" y="316.0" text-anchor="middle" class="node-sub">judge endpoint</text>
  <rect x="98.0" y="396.0" width="196.0" height="72.0" rx="10.0" fill="#e8e6e3" stroke="#8f8a80" stroke-width="1.8"/>
  <text x="196.0" y="414.0" text-anchor="middle" class="node-type">STORE</text>
  <text x="196.0" y="438.0" text-anchor="middle" class="node-title">Vault Docs</text>
  <text x="196.0" y="460.0" text-anchor="middle" class="node-sub">manifest + fixtures</text>
  <rect x="430.0" y="396.0" width="220.0" height="72.0" rx="10.0" fill="#f4e4c1" stroke="#b45309" stroke-width="1.8"/>
  <text x="540.0" y="414.0" text-anchor="middle" class="node-type">EVIDENCE</text>
  <text x="540.0" y="438.0" text-anchor="middle" class="node-title">Formal Artifacts</text>
  <text x="540.0" y="460.0" text-anchor="middle" class="node-sub">648 / 972 / 72 / 72 calls</text>
  <rect x="786.0" y="396.0" width="218.0" height="72.0" rx="10.0" fill="#a8c5e6" stroke="#5f7fa6" stroke-width="1.8"/>
  <text x="895.0" y="414.0" text-anchor="middle" class="node-type">SURFACE</text>
  <text x="895.0" y="438.0" text-anchor="middle" class="node-title">Public Handoff</text>
  <text x="895.0" y="460.0" text-anchor="middle" class="node-sub">dashboard + release pages</text>
  <rect x="344.0" y="156.4" width="36" height="20" rx="6" fill="#f8f6f3" opacity="0.96"/>
  <text x="362.0" y="170.4" text-anchor="middle" class="arrow-label">run</text>
  <rect x="575.5" y="194.4" width="77" height="20" rx="6" fill="#f8f6f3" opacity="0.96"/>
  <text x="614.0" y="208.4" text-anchor="middle" class="arrow-label">benchmark</text>
  <rect x="294.0" y="364.4" width="42" height="20" rx="6" fill="#f8f6f3" opacity="0.96"/>
  <text x="315.0" y="378.4" text-anchor="middle" class="arrow-label">load</text>
  <rect x="582.5" y="366.4" width="63" height="20" rx="6" fill="#f8f6f3" opacity="0.96"/>
  <text x="614.0" y="380.4" text-anchor="middle" class="arrow-label">measure</text>
  <rect x="686.5" y="466.0" width="63" height="20" rx="6" fill="#f8f6f3" opacity="0.96"/>
  <text x="718.0" y="480.0" text-anchor="middle" class="arrow-label">publish</text>
</svg>